<svg id="레이어_1" data-name="레이어 1" xmlns="http://www.w3.org/2000/svg" xmlns:xlink="http://www.w3.org/1999/xlink" viewBox="0 0 676.69 178.57"><defs><style>.cls-1{fill:url(#무제_그라디언트_12);}.cls-2{fill:url(#무제_그라디언트_12-2);}.cls-3,.cls-4,.cls-5,.cls-6,.cls-7{fill:none;stroke-linecap:round;}.cls-3{stroke-miterlimit:10;stroke-width:30px;stroke:url(#무제_그라디언트_12-3);}.cls-4,.cls-5,.cls-6,.cls-7{stroke-linejoin:round;}.cls-4,.cls-5{stroke-width:37px;}.cls-4{stroke:url(#무제_그라디언트_12-4);}.cls-5{stroke:url(#무제_그라디언트_12-5);}.cls-6,.cls-7{stroke-width:21px;}.cls-6{stroke:url(#무제_그라디언트_12-6);}.cls-7{stroke:url(#무제_그라디언트_12-7);}</style><linearGradient id="무제_그라디언트_12" x1="406.87" y1="379.63" x2="406.87" y2="214.65" gradientUnits="userSpaceOnUse"><stop offset="0" stop-color="#f9c156"/><stop offset="1" stop-color="#f0896a"/></linearGradient><linearGradient id="무제_그라디언트_12-2" x1="746.8" y1="379.63" x2="746.8" y2="214.65" xlink:href="#무제_그라디언트_12"/><linearGradient id="무제_그라디언트_12-3" x1="401.58" y1="231.25" x2="401.58" y2="231.25" xlink:href="#무제_그라디언트_12"/><linearGradient id="무제_그라디언트_12-4" x1="241.21" y1="178.57" x2="241.21" y2="2" xlink:href="#무제_그라디언트_12"/><linearGradient id="무제_그라디언트_12-5" x1="546.31" y1="174.28" x2="546.31" y2="0" xlink:href="#무제_그라디언트_12"/><linearGradient id="무제_그라디언트_12-6" x1="746.8" y1="372.33" x2="746.8" y2="372.33" xlink:href="#무제_그라디언트_12"/><linearGradient id="무제_그라디언트_12-7" x1="666.07" y1="176.47" x2="666.07" y2="155.47" xlink:href="#무제_그라디언트_12"/></defs><path class="cls-1" d="M92.93,355s-8.11,6.59-3.67,16.72c0,0,7.2,12.29,19.87,3.87l132.31-100a2.64,2.64,0,0,1,3.09-.18,2.2,2.2,0,0,1,.57,2.76l-33.8,83.18a12.6,12.6,0,0,0,4.32,14.48s9.3,7,19.74-2.14l126.57-96.33a2.55,2.55,0,0,1,2.85,0s1.34.81.46,2.87l-35.69,80A13.4,13.4,0,0,0,333,375.47s8,7,19.11-1.33l171.69-120.8s1.54-1.39,3-.93a2,2,0,0,1,1.45,2.08v110s-1.48,13.93,15.47,13.93c0,0,15.47.4,15.47-13.93l0-109.73a2.3,2.3,0,0,1,1.58-2.13,1.86,1.86,0,0,1,2,.36L693.2,367.78s7,6.24,10,8.35a16.18,16.18,0,0,0,15.23,1.47c6.24-2.49,7.36-8.07,7.36-14.77v-133s.84-14.1-14.5-15.48c0,0-16.44-1.2-16.44,15.48v99.81a2.22,2.22,0,0,1-1.31,2.53,2.09,2.09,0,0,1-2.16-.21L567.56,222.85a32.11,32.11,0,0,0-23.84-8.49s-8.34-.66-18.06,6.16L379.56,323.11s-2,1.67-3.7.38a2.14,2.14,0,0,1-.47-2.56l36.89-83.19s4.15-10.12-3.88-16c0,0-7.68-6.54-18.48,2.14L264,319.06l-4,3s-1.92,1.59-3.53.24c0,0-1-.9-.28-2.78l33-81.34s5.19-10.74-4.46-17c0,0-7.34-5.58-17.92,2.88Z" transform="translate(-80.61 -206.36)"/><path class="cls-2" d="M736.61,372.28a9.76,9.76,0,0,1,2.88-7.21,9.86,9.86,0,0,1,7.24-2.93,10,10,0,0,1,7.38,2.93,10.53,10.53,0,0,1,0,14.47,10.25,10.25,0,0,1-7.38,3,10.08,10.08,0,0,1-7.24-3A9.81,9.81,0,0,1,736.61,372.28Z" transform="translate(-80.61 -206.36)"/><path class="cls-3" d="M401.58,231.25" transform="translate(-80.61 -206.36)"/><polyline class="cls-4" points="18.5 160.07 193.8 29.08 147.86 155.78 316.02 29.08 265.83 155.78 463.91 20.5 461.91 155.78"/><polyline class="cls-5" points="628.7 18.5 628.7 155.78 463.91 20.5"/><path class="cls-6" d="M746.8,372.33" transform="translate(-80.61 -206.36)"/><line class="cls-7" x1="665.95" y1="165.97" x2="666.19" y2="165.97"/></svg>