<svg id="레이어_1" data-name="레이어 1" xmlns="http://www.w3.org/2000/svg" viewBox="0 0 670.06 169.24"><defs><style>.cls-1,.cls-2,.cls-3{fill:none;stroke:#fff;}.cls-1,.cls-2{stroke-miterlimit:10;}.cls-2,.cls-3{stroke-linecap:round;}.cls-2{stroke-width:30px;}.cls-3{stroke-linejoin:round;stroke-width:21px;}</style></defs><path class="cls-1" d="M92.93,355s-8.11,6.59-3.67,16.72c0,0,7.2,12.29,19.87,3.87l132.31-100a2.64,2.64,0,0,1,3.09-.18,2.2,2.2,0,0,1,.57,2.76l-33.8,83.18a12.6,12.6,0,0,0,4.32,14.48s9.3,7,19.74-2.14l126.57-96.33a2.55,2.55,0,0,1,2.85,0s1.34.81.46,2.87l-35.69,80A13.4,13.4,0,0,0,333,375.47s8,7,19.11-1.33l171.69-120.8s1.54-1.39,3-.93a2,2,0,0,1,1.45,2.08v110s-1.48,13.93,15.47,13.93c0,0,15.47.4,15.47-13.93l0-109.73a2.3,2.3,0,0,1,1.58-2.13,1.86,1.86,0,0,1,2,.36L693.2,367.78s7,6.24,10,8.35a16.18,16.18,0,0,0,15.23,1.47c6.24-2.49,7.36-8.07,7.36-14.77v-133s.84-14.1-14.5-15.48c0,0-16.44-1.2-16.44,15.48v99.81a2.22,2.22,0,0,1-1.31,2.53,2.09,2.09,0,0,1-2.16-.21L567.56,222.85a32.11,32.11,0,0,0-23.84-8.49s-8.34-.66-18.06,6.16L379.56,323.11s-2,1.67-3.7.38a2.14,2.14,0,0,1-.47-2.56l36.89-83.19s4.15-10.12-3.88-16c0,0-7.68-6.54-18.48,2.14L264,319.06l-4,3s-1.92,1.59-3.53.24c0,0-1-.9-.28-2.78l33-81.34s5.19-10.74-4.46-17c0,0-7.34-5.58-17.92,2.88Z" transform="translate(-87.43 -213.78)"/><path class="cls-1" d="M736.61,372.28a9.76,9.76,0,0,1,2.88-7.21,9.86,9.86,0,0,1,7.24-2.93,10,10,0,0,1,7.38,2.93,10.53,10.53,0,0,1,0,14.47,10.25,10.25,0,0,1-7.38,3,10.08,10.08,0,0,1-7.24-3A9.81,9.81,0,0,1,736.61,372.28Z" transform="translate(-87.43 -213.78)"/><path class="cls-2" d="M401.58,231.25" transform="translate(-87.43 -213.78)"/><path class="cls-3" d="M746.8,372.33" transform="translate(-87.43 -213.78)"/><line class="cls-3" x1="659.13" y1="158.55" x2="659.37" y2="158.55"/></svg>