<?xml version="1.0" encoding="utf-8"?>
<!-- Generator: Adobe Illustrator 22.1.0, SVG Export Plug-In . SVG Version: 6.00 Build 0)  -->
<svg version="1.1" id="레이어_1" xmlns="http://www.w3.org/2000/svg" xmlns:xlink="http://www.w3.org/1999/xlink" x="0px"
	 y="0px" viewBox="0 0 240 159.6" style="enable-background:new 0 0 240 159.6;" xml:space="preserve">
<style type="text/css">
	.st0{fill:#F8B950;}
</style>
<g>
	<path class="st0" d="M96.5,127.3l1,0.1c0,0.4,0,3.2,0,3.9c0,0.9,0.3,1.9,1.3,1.8c1.1-0.1,1.4-2,1.6-3.2l0.2-2.2l1,0.1l-0.3,3.8
		c-0.1,0.9,0.3,1.9,1.2,1.8c1.4-0.1,1.7-2.6,1.7-3.6l0.1-1.8l1,0.1l-0.5,5.7l-1-0.1l0.2-2.6c-0.2,1.3-0.7,2.6-2.2,2.5
		c-0.9-0.1-1.7-0.9-1.6-2.3l0-0.1c-0.2,1.1-0.8,2.2-2,2.1c-1-0.1-1.6-0.8-1.6-2.3C96.5,129.8,96.5,127.7,96.5,127.3z"/>
	<path class="st0" d="M94.8,134.4c0,0.3-0.3,0.5-0.6,0.5c-0.3,0-0.5-0.3-0.5-0.6c0-0.3,0.3-0.5,0.6-0.5
		C94.6,133.8,94.9,134.1,94.8,134.4z M94.9,132.9l-1-0.1l0.7-5.7l1,0.1L94.9,132.9z"/>
	<path class="st0" d="M87.9,126.2l1,0.1c0,0.4-0.1,3.2-0.2,3.9c0,0.9,0.3,2,1.4,1.9c1.4-0.1,2-2.5,2.1-3.5l0.2-1.8l1,0.1l-0.8,5.6
		l-1-0.1l0.4-2.9c-0.3,1.3-1,2.9-2.6,2.7c-1-0.1-1.7-0.9-1.7-2.4C87.9,128.7,87.9,126.6,87.9,126.2z"/>
	<path class="st0" d="M83.1,132.8c-0.1,0.3-0.3,0.5-0.7,0.5c-0.3-0.1-0.5-0.3-0.5-0.7c0.1-0.3,0.3-0.5,0.7-0.5
		C83,132.2,83.2,132.5,83.1,132.8z M83.3,131.2l-0.9-0.2l1-5.7c0.3-2,1.6-2.5,2.8-2.7l0,0.1c-1.2,0.3-1.5,0.7-1.8,2.7L83.3,131.2z"
		/>
	<path class="st0" d="M76.2,125.7c0.5-0.6,1.4-1.4,2.9-1.2c1.6,0.2,3.2,1.5,2.8,3.4c-0.3,2.1-2.4,2.6-3.8,2.4
		c-1-0.1-2.3-0.9-2.2-2.4l4.7,0.9c0.3-0.6,0.4-1.3,0.3-1.9c-0.2-1.3-1.1-2.2-2.3-2.3C77.4,124.6,76.6,125.5,76.2,125.7L76.2,125.7z
		 M80.7,129l-3.8-0.8c0,1.1,0.7,2.1,2,2.1C79.6,130.3,80.3,129.7,80.7,129z"/>
	<path class="st0" d="M69.2,125.3c0.4-1.8,2.3-2.4,3.8-2.1c1.5,0.4,2.9,1.8,2.5,3.6c-0.4,1.8-2.3,2.4-3.8,2.1
		C70.2,128.6,68.8,127.1,69.2,125.3z M70.2,125.6c-0.4,1.5,0.3,3,1.5,3.3c1.2,0.3,2.5-0.7,2.8-2.2c0.4-1.5-0.3-3-1.5-3.3
		C71.8,123.1,70.5,124,70.2,125.6z"/>
	<path class="st0" d="M63.8,120.9l0.9,0.3c-0.1,0.4-0.6,3.2-0.7,3.8c-0.1,0.9,0,2,1.1,2.1c1.4,0.1,2.3-2.2,2.6-3.2l0.5-1.7l0.9,0.3
		l-1.5,5.5l-0.9-0.3l0.8-2.8c-0.5,1.3-1.4,2.7-2.9,2.3c-1-0.3-1.6-1.1-1.4-2.6C63.3,123.3,63.7,121.3,63.8,120.9z"/>
	<path class="st0" d="M55,123.8l1.9,0.5c-0.7-0.7-1-1.6-0.7-2.7c0.6-1.8,2.6-2.5,4.1-2c0.3,0.1,0.5,0.2,0.8,0.3
		c0.5,0.2,1.1,0.2,1.6,0c0.2-0.1,0.5-0.2,0.6-0.5c0.1-0.2,0.1-0.5,0-0.7c-0.1-0.2-0.4-0.4-0.7-0.6c-0.6-0.2-1.4,0-2.3,0.3
		c-0.9,0.3-1.7,0.6-2.5,0.3c-0.6-0.2-0.9-0.7-0.8-1.3c0.1-0.3,0.3-0.6,0.7-0.7c0.4-0.2,1-0.2,1.7,0c0.7,0.2,1.4,1,1.7,1.4
		c0.6-0.2,1.1-0.2,1.5-0.1c0.4,0.1,0.7,0.3,0.8,0.6c0.1,0.2,0.1,0.5,0,0.7c-0.1,0.3-0.3,0.5-0.7,0.6c-0.4,0.1-0.9,0.2-1.3,0.1
		c0.9,0.7,1.4,1.7,1,2.9c-0.6,1.9-2.6,2.5-4.2,2c-0.5-0.2-0.9-0.4-1.2-0.7l-2.2-0.1L55,123.8z M59.2,125.3c1.5,0,2.3-1.3,2.3-2.8
		c0-1.5-0.7-2.8-2.2-2.9c-1.5-0.1-2.3,1.3-2.3,2.8C57,123.9,57.8,125.2,59.2,125.3z M61,118.3c-0.3-0.4-0.9-1.1-1.6-1.4
		c-0.6-0.2-1.2-0.2-1.6,0c-0.3,0.2-0.5,0.4-0.6,0.7c-0.2,0.5,0.1,1,0.7,1.2c0.7,0.2,1.6,0,2.4-0.3C60.6,118.5,60.8,118.4,61,118.3z"
		/>
	<path class="st0" d="M49,115.5l0.9,0.4l0.7,4l1.2-0.4l1-2.4l0.9,0.4l-3.2,7.8l-0.9-0.4l2.2-5.3l-4.4,1.5l-0.1-0.1l2.5-0.8L49,115.5
		z"/>
	<path class="st0" d="M45.4,121.9c-0.1,0.3-0.5,0.4-0.8,0.3c-0.3-0.1-0.4-0.5-0.3-0.8c0.1-0.3,0.5-0.4,0.8-0.3
		S45.5,121.6,45.4,121.9z M45.9,120.4L45,120l2.4-5.3l0.9,0.4L45.9,120.4z"/>
	<path class="st0" d="M38.6,110.3l0.9,0.5c-0.1,0.4-1.2,3-1.5,3.6c-0.3,0.8-0.5,1.9,0.5,2.2c1.1,0.3,2.1-1.3,2.7-2.4l1-1.9l0.9,0.4
		l-1.8,3.4c-0.4,0.8-0.5,1.9,0.4,2.2c1.3,0.4,2.6-1.8,3-2.7l0.8-1.6l0.9,0.4l-2.6,5l-0.9-0.4l1.2-2.3c-0.7,1.1-1.7,2.1-3,1.4
		c-0.8-0.4-1.2-1.5-0.6-2.7l0.1-0.1c-0.7,1-1.6,1.7-2.7,1.1c-0.9-0.4-1.1-1.4-0.6-2.7C37.6,112.6,38.4,110.7,38.6,110.3z"/>
	<path class="st0" d="M29.2,109.1L29.2,109.1l3.9,2.6l-0.1,0.1L29.2,109.1z"/>
	<path class="st0" d="M22.3,97.1l0.7,0.7c-0.3,0.3-2.1,2.5-2.5,3c-0.6,0.7-1.1,1.7-0.2,2.2c1,0.6,2.4-0.6,3.3-1.4l1.6-1.5l0.7,0.7
		l-2.7,2.7c-0.6,0.6-1,1.6-0.2,2.2c1.1,0.8,3-0.9,3.7-1.6l1.3-1.2l0.7,0.7l-4,4l-0.7-0.7l1.8-1.8c-1,0.8-2.2,1.5-3.3,0.5
		c-0.7-0.7-0.7-1.8,0.2-2.8l0.1-0.1c-0.9,0.7-2,1.2-2.9,0.3c-0.7-0.7-0.7-1.7,0.2-2.8C20.7,99,22.1,97.4,22.3,97.1z"/>
	<path class="st0" d="M16.3,100.8c-0.3,0.2-0.6,0.1-0.8-0.1c-0.2-0.3-0.1-0.6,0.1-0.8c0.3-0.2,0.6-0.1,0.8,0.1
		S16.5,100.7,16.3,100.8z M17.4,99.8L16.9,99l4.6-3.5l0.6,0.8L17.4,99.8z"/>
	<path class="st0" d="M18.1,90.1l0.5,0.9c-0.3,0.2-2.6,1.9-3.1,2.2c-0.7,0.5-1.4,1.4-0.7,2.3c0.9,1.1,3.2,0,4.1-0.5l1.5-0.9l0.5,0.8
		l-4.9,2.8l-0.5-0.8l2.5-1.4c-1.3,0.5-2.9,1-3.7-0.4c-0.5-0.9-0.3-1.9,0.8-2.8C16,91.5,17.7,90.3,18.1,90.1z"/>
	<path class="st0" d="M10,89.1c-0.3,0.1-0.6-0.1-0.7-0.4c-0.1-0.3,0.1-0.6,0.4-0.7c0.3-0.1,0.6,0.1,0.7,0.4
		C10.5,88.6,10.3,89,10,89.1z M11.5,88.5l-0.3-0.9l5.6-1.6c2-0.6,2.9,0.4,3.7,1.3l-0.1,0c-0.8-0.9-1.3-1-3.2-0.5L11.5,88.5z"/>
	<path class="st0" d="M14.1,79.7c0.7,0.3,1.7,0.9,2,2.4c0.3,1.6-0.4,3.5-2.4,3.7c-2.1,0.3-3.2-1.5-3.4-2.8c-0.2-1,0.1-2.5,1.6-2.8
		l0.6,4.8c0.6,0.1,1.3,0,1.9-0.3c1.2-0.6,1.7-1.7,1.5-2.9C15.5,80.4,14.4,79.9,14.1,79.7L14.1,79.7z M12.3,84.9L11.9,81
		c-1,0.3-1.7,1.3-1.4,2.5C10.7,84.3,11.5,84.7,12.3,84.9z"/>
	<path class="st0" d="M13.8,72.7c1.8,0.3,2.6,2.1,2.4,3.6c-0.2,1.5-1.5,3.1-3.3,2.8c-1.8-0.3-2.6-2.1-2.4-3.6
		C10.6,73.9,12,72.4,13.8,72.7z M13.6,73.7c-1.6-0.2-2.9,0.6-3.1,1.8c-0.2,1.2,0.9,2.4,2.5,2.6c1.6,0.2,2.9-0.6,3.1-1.8
		C16.3,75.1,15.2,73.9,13.6,73.7z"/>
	<path class="st0" d="M18.9,67.6l-0.4,0.9c-0.4-0.1-3.1-0.9-3.7-1.1c-0.9-0.3-2-0.2-2.2,0.8c-0.3,1.4,2,2.6,2.9,2.9l1.6,0.7
		l-0.4,0.9l-5.3-2.2l0.4-0.9l2.7,1.1c-1.2-0.7-2.5-1.7-1.9-3.1c0.4-0.9,1.3-1.5,2.7-1.1C16.5,66.9,18.4,67.4,18.9,67.6z"/>
	<path class="st0" d="M18.2,58.6l-1,1.7c0.9-0.5,1.9-0.6,2.8,0.1c1.6,1.1,1.7,3.2,0.8,4.5c-0.2,0.2-0.3,0.5-0.5,0.6
		c-0.3,0.4-0.5,1-0.5,1.5c0,0.2,0.1,0.6,0.4,0.8c0.2,0.2,0.4,0.2,0.6,0.2c0.3,0,0.5-0.2,0.7-0.5c0.4-0.6,0.3-1.4,0.3-2.3
		c0-0.9-0.1-1.8,0.4-2.5c0.4-0.6,1-0.7,1.5-0.4c0.3,0.2,0.5,0.5,0.5,0.8c0.1,0.5-0.1,1.1-0.4,1.6c-0.4,0.6-1.3,1.1-1.8,1.2
		c0,0.6-0.1,1.1-0.4,1.5c-0.2,0.3-0.5,0.6-0.8,0.6c-0.2,0-0.5,0-0.7-0.2c-0.2-0.2-0.4-0.5-0.4-0.8c0-0.4,0.1-0.9,0.3-1.3
		c-0.9,0.7-2,0.9-3.1,0.2c-1.6-1.1-1.7-3.2-0.8-4.5c0.3-0.4,0.6-0.7,1-1l0.7-2.1L18.2,58.6z M15.7,62.3c-0.4,1.4,0.6,2.5,2,3
		c1.4,0.5,2.9,0.1,3.4-1.3c0.5-1.4-0.6-2.5-2-3C17.6,60.5,16.1,60.9,15.7,62.3z M21.9,65.9c0.5-0.1,1.4-0.6,1.7-1.2
		c0.3-0.5,0.5-1.1,0.4-1.5c-0.1-0.3-0.2-0.6-0.5-0.8c-0.5-0.3-1-0.2-1.3,0.3c-0.4,0.6-0.4,1.5-0.4,2.4
		C21.9,65.4,21.9,65.6,21.9,65.9z"/>
	<path class="st0" d="M28.5,56l-0.7,0.7l-3.9-1L23.7,57l1.8,1.8l-0.7,0.7l-5.8-6l0.7-0.7l4,4.1l0.4-4.6l0.1-0.1l-0.2,2.6L28.5,56z"
		/>
	<path class="st0" d="M24.3,50c-0.2-0.2-0.2-0.6,0.1-0.8c0.2-0.2,0.6-0.2,0.8,0.1c0.2,0.2,0.2,0.6-0.1,0.8
		C24.9,50.3,24.5,50.3,24.3,50z M25.4,51.1l0.7-0.6l3.7,4.4l-0.7,0.6L25.4,51.1z"/>
	<path class="st0" d="M37.8,49.2L37,49.8c-0.3-0.3-2.1-2.5-2.5-3c-0.6-0.7-1.5-1.3-2.1-0.6c-0.8,0.8,0.1,2.5,0.9,3.5l1.3,1.8
		L33.7,52l-2.2-3.2c-0.5-0.7-1.4-1.3-2.1-0.6c-1,1,0.4,3.1,1,3.9l1,1.5l-0.8,0.6l-3.2-4.7l0.8-0.6l1.5,2.1c-0.6-1.1-1.1-2.5,0.1-3.3
		c0.8-0.5,1.9-0.4,2.7,0.7l0.1,0.1c-0.5-1-0.8-2.2,0.2-2.9c0.8-0.6,1.8-0.4,2.7,0.7C36.2,47.3,37.5,48.9,37.8,49.2z"/>
	<path class="st0" d="M43.3,41.5L43.3,41.5l-4.1,2.3l0-0.1L43.3,41.5z"/>
	<path class="st0" d="M57,40.2l-0.9,0.4c-0.2-0.4-1.5-2.9-1.8-3.4c-0.4-0.8-1.1-1.6-1.9-1.1c-1,0.6-0.4,2.4,0.1,3.6l0.8,2l-0.9,0.4
		l-1.4-3.6c-0.3-0.8-1.1-1.6-1.9-1.1c-1.2,0.8-0.3,3.1,0.1,4l0.7,1.6l-0.9,0.4l-2.1-5.3l0.9-0.4l1,2.4C48.2,39,48,37.6,49.4,37
		c0.9-0.4,1.9,0.1,2.5,1.3l0,0.1c-0.3-1.1-0.3-2.3,0.9-2.8c0.9-0.4,1.8,0,2.5,1.3C55.8,38,56.8,39.8,57,40.2z"/>
	<path class="st0" d="M55.3,33.1c-0.1-0.3,0.1-0.6,0.4-0.7c0.3-0.1,0.6,0,0.7,0.3c0.1,0.3-0.1,0.6-0.4,0.7
		C55.7,33.5,55.4,33.4,55.3,33.1z M55.9,34.5l0.9-0.3l1.9,5.4l-0.9,0.3L55.9,34.5z"/>
	<path class="st0" d="M65.1,37.5l-0.9,0.3c-0.2-0.4-1.3-3-1.5-3.5c-0.4-0.8-1.1-1.7-2.1-1.1c-1.2,0.7-0.7,3.1-0.4,4.1l0.5,1.7
		l-0.9,0.3l-1.7-5.4l0.9-0.3l0.9,2.8c-0.3-1.3-0.4-3,1.2-3.5c1-0.3,2,0.1,2.6,1.4C64.1,35.2,64.9,37.1,65.1,37.5z"/>
	<path class="st0" d="M66.7,29.5c-0.1-0.3,0.1-0.6,0.4-0.7c0.3-0.1,0.6,0.1,0.7,0.4s-0.1,0.6-0.4,0.7C67.1,30,66.7,29.8,66.7,29.5z
		 M67.2,31l0.9-0.3l1.5,5.6c0.5,2-0.4,2.9-1.4,3.6l0-0.1c0.9-0.8,1.1-1.3,0.5-3.2L67.2,31z"/>
	<path class="st0" d="M75.9,33c-0.2,0.8-0.7,1.8-2.1,2.3c-1.5,0.4-3.5,0-4-1.9c-0.6-2,1.1-3.3,2.4-3.7c1-0.3,2.5-0.2,3,1.2L70.5,32
		c0,0.7,0.2,1.3,0.5,1.8c0.7,1.1,1.9,1.5,3.1,1.1C75.3,34.6,75.7,33.4,75.9,33L75.9,33z M70.5,31.9l3.8-0.9c-0.4-1-1.5-1.6-2.7-1.1
		C70.9,30.3,70.5,31.1,70.5,31.9z"/>
	<path class="st0" d="M82.5,30.4c0.4,1.8-1.1,3.2-2.6,3.5c-1.5,0.3-3.4-0.4-3.8-2.2c-0.4-1.8,1.1-3.2,2.6-3.5
		C80.2,27.9,82.1,28.6,82.5,30.4z M81.5,30.6c-0.3-1.6-1.6-2.6-2.8-2.3c-1.2,0.2-1.9,1.7-1.6,3.2c0.3,1.6,1.6,2.6,2.8,2.3
		C81,33.6,81.8,32.2,81.5,30.6z"/>
	<path class="st0" d="M89.3,32.2l-1,0.2c-0.1-0.4-0.8-3.1-1-3.7c-0.2-0.9-0.9-1.8-1.9-1.4c-1.3,0.5-1.1,3-1,4l0.3,1.8l-1,0.2
		l-0.9-5.6l1-0.2l0.5,2.9c-0.1-1.4,0.1-3,1.7-3.3c1-0.2,1.9,0.4,2.3,1.7C88.6,29.7,89.1,31.7,89.3,32.2z"/>
	<path class="st0" d="M95.9,25.7l-2,0.3c0.9,0.3,1.6,1,1.8,2.1c0.3,1.9-1.2,3.4-2.9,3.6c-0.3,0-0.6,0.1-0.8,0
		c-0.5,0-1.1,0.3-1.5,0.7c-0.2,0.2-0.3,0.4-0.3,0.8c0,0.3,0.1,0.5,0.3,0.6c0.2,0.2,0.5,0.2,0.9,0.2c0.7-0.1,1.3-0.7,1.9-1.3
		c0.6-0.6,1.3-1.3,2.1-1.4c0.7-0.1,1.2,0.3,1.3,0.9c0,0.3,0,0.7-0.3,0.9c-0.3,0.4-0.8,0.7-1.5,0.7c-0.7,0.1-1.7-0.3-2.1-0.6
		c-0.4,0.4-0.9,0.7-1.4,0.7c-0.4,0.1-0.7,0-1-0.2c-0.2-0.2-0.3-0.4-0.3-0.7c0-0.3,0.1-0.6,0.3-0.9c0.3-0.3,0.7-0.5,1.2-0.7
		c-1.1-0.2-2-1-2.2-2.2c-0.3-2,1.2-3.4,2.9-3.6c0.5-0.1,1,0,1.4,0.1l2.1-0.9L95.9,25.7z M91.4,26.2c-1.3,0.6-1.5,2.1-0.9,3.5
		c0.6,1.4,1.9,2.2,3.2,1.7c1.3-0.6,1.5-2.1,0.9-3.5C94.1,26.5,92.8,25.7,91.4,26.2z M92.9,33.3c0.4,0.3,1.3,0.6,2,0.5
		c0.6-0.1,1.1-0.3,1.4-0.7c0.2-0.3,0.3-0.6,0.2-0.9c-0.1-0.5-0.5-0.9-1.1-0.8c-0.7,0.1-1.4,0.7-2,1.3C93.2,32.9,93,33.1,92.9,33.3z"
		/>
	<path class="st0" d="M104.9,30.4l-1,0.1l-2.4-3.2l-0.9,0.9l0.2,2.6l-1,0.1l-0.7-8.4l1-0.1l0.5,5.7l3.2-3.3l0.1,0l-1.8,1.9
		L104.9,30.4z"/>
	<path class="st0" d="M105.1,23.1c0-0.3,0.2-0.6,0.5-0.6c0.3,0,0.6,0.2,0.6,0.5c0,0.3-0.2,0.6-0.5,0.6
		C105.4,23.6,105.1,23.4,105.1,23.1z M105.3,24.6l1-0.1l0.4,5.8l-1,0.1L105.3,24.6z"/>
	<path class="st0" d="M116.6,29.8l-1,0c-0.1-0.4-0.4-3.2-0.5-3.8c-0.1-0.9-0.5-1.9-1.5-1.7c-1.1,0.3-1.2,2.2-1.1,3.4l0.1,2.2l-1,0
		l-0.2-3.8c0-0.9-0.5-1.9-1.5-1.7c-1.4,0.3-1.3,2.8-1.3,3.8l0.1,1.8l-1,0l-0.2-5.7l1,0l0.1,2.6c0.1-1.3,0.4-2.7,1.9-2.7
		c0.9,0,1.8,0.7,1.9,2l0,0.1c0.1-1.2,0.5-2.3,1.7-2.3c1,0,1.7,0.6,1.9,2C116.3,27.3,116.6,29.3,116.6,29.8z"/>
	<path class="st0" d="M125.2,25.5L125.2,25.5l-4.7,0.1v-0.1L125.2,25.5z"/>
	<path class="st0" d="M138.1,30.3l-1-0.1c0-0.4-0.1-3.2-0.2-3.9c0-0.9-0.3-1.9-1.3-1.8c-1.1,0.2-1.4,2-1.5,3.3l-0.1,2.2l-1-0.1
		l0.2-3.8c0-0.9-0.3-1.9-1.3-1.8c-1.4,0.2-1.6,2.7-1.6,3.7l-0.1,1.8l-1-0.1l0.3-5.7l1,0.1l-0.1,2.6c0.2-1.3,0.6-2.6,2.1-2.6
		c0.9,0,1.7,0.9,1.7,2.2l0,0.1c0.2-1.2,0.7-2.2,2-2.1c1,0.1,1.6,0.8,1.7,2.2C138,27.8,138.1,29.9,138.1,30.3z"/>
	<path class="st0" d="M139.5,24.7l1,0.1l-0.5,5.8l-1-0.1L139.5,24.7z M139.5,23.1c0-0.3,0.3-0.5,0.6-0.5c0.3,0,0.6,0.3,0.5,0.6
		c0,0.3-0.3,0.5-0.6,0.5C139.7,23.7,139.5,23.4,139.5,23.1z"/>
	<path class="st0" d="M146.7,31.1l-1-0.1c0-0.4,0-3.2,0-3.9c0-0.9-0.4-2-1.4-1.9c-1.4,0.1-1.9,2.6-2,3.6l-0.2,1.8l-1-0.1l0.6-5.7
		l1,0.1l-0.3,2.9c0.3-1.3,0.9-2.9,2.5-2.7c1,0.1,1.8,0.9,1.8,2.3C146.6,28.6,146.6,30.7,146.7,31.1z"/>
	<path class="st0" d="M151.2,25.9l1,0.1l-0.8,5.8c-0.3,2-1.5,2.5-2.7,2.8l0-0.1c1.2-0.4,1.5-0.8,1.8-2.7L151.2,25.9z M151.2,24.4
		c0-0.3,0.3-0.5,0.6-0.5c0.3,0,0.5,0.3,0.5,0.6c0,0.3-0.3,0.5-0.6,0.5C151.4,25,151.2,24.7,151.2,24.4z"/>
	<path class="st0" d="M158.3,31.2c-0.5,0.6-1.4,1.4-2.8,1.3c-1.6-0.2-3.2-1.3-3-3.3c0.3-2.1,2.3-2.7,3.7-2.5c1,0.1,2.4,0.8,2.3,2.3
		l-4.8-0.8c-0.2,0.6-0.3,1.3-0.2,1.9c0.3,1.3,1.2,2.1,2.4,2.2C157.2,32.4,158,31.4,158.3,31.2L158.3,31.2z M153.8,28.1l3.9,0.6
		c0-1.1-0.8-2-2-2C154.8,26.7,154.2,27.3,153.8,28.1z"/>
	<path class="st0" d="M165.4,31.3c-0.3,1.8-2.2,2.5-3.7,2.2c-1.5-0.3-3-1.7-2.6-3.5s2.2-2.5,3.7-2.2
		C164.3,28.1,165.8,29.5,165.4,31.3z M164.4,31.1c0.3-1.6-0.5-3-1.7-3.2c-1.2-0.2-2.4,0.8-2.7,2.3c-0.3,1.6,0.5,3,1.7,3.2
		C162.9,33.7,164.1,32.7,164.4,31.1z"/>
	<path class="st0" d="M171,35.5l-1-0.2c0.1-0.4,0.5-3.2,0.5-3.8c0.1-0.9-0.1-2-1.2-2c-1.4-0.1-2.2,2.3-2.4,3.3l-0.4,1.7l-0.9-0.2
		l1.3-5.5l0.9,0.2l-0.7,2.8c0.5-1.3,1.2-2.8,2.8-2.4c1,0.2,1.7,1.1,1.5,2.5C171.3,33.1,171.1,35.1,171,35.5z"/>
	<path class="st0" d="M179.6,32.2l-1.9-0.5c0.7,0.7,1.1,1.6,0.8,2.6c-0.5,1.8-2.5,2.6-4.1,2.2c-0.3-0.1-0.5-0.2-0.8-0.3
		c-0.5-0.2-1.1-0.2-1.6,0c-0.2,0.1-0.5,0.3-0.6,0.6c-0.1,0.2-0.1,0.5,0,0.7c0.1,0.2,0.4,0.4,0.7,0.5c0.6,0.2,1.4-0.1,2.2-0.4
		c0.8-0.3,1.7-0.6,2.5-0.4c0.7,0.2,1,0.7,0.8,1.3c-0.1,0.3-0.3,0.6-0.6,0.8c-0.4,0.2-1,0.3-1.6,0.1c-0.7-0.2-1.5-0.9-1.7-1.4
		c-0.6,0.2-1.1,0.3-1.5,0.1c-0.4-0.1-0.7-0.3-0.8-0.6c-0.1-0.2-0.1-0.5,0-0.7c0.1-0.3,0.3-0.5,0.7-0.7c0.4-0.2,0.9-0.2,1.3-0.1
		c-0.9-0.6-1.5-1.7-1.1-2.9c0.5-1.9,2.5-2.6,4.1-2.2c0.5,0.1,0.9,0.4,1.3,0.6l2.2,0L179.6,32.2z M175.3,30.9c-1.5,0-2.2,1.4-2.2,2.9
		c0,1.5,0.9,2.8,2.3,2.8c1.5,0,2.2-1.4,2.2-2.9C177.6,32.2,176.8,30.9,175.3,30.9z M173.9,38c0.3,0.4,1,1.1,1.7,1.3
		c0.6,0.2,1.2,0.1,1.6-0.1c0.3-0.2,0.5-0.4,0.6-0.7c0.1-0.5-0.1-1-0.7-1.2c-0.7-0.2-1.6,0.1-2.4,0.4C174.3,37.8,174.1,37.9,173.9,38
		z"/>
	<path class="st0" d="M186,40.2l-0.9-0.3l-0.9-3.9l-1.2,0.5l-0.8,2.4l-0.9-0.3l2.8-7.9l0.9,0.3l-1.9,5.4l4.3-1.7l0.1,0l-2.4,1
		L186,40.2z"/>
	<path class="st0" d="M188.9,35.1l0.9,0.3l-2.1,5.4l-0.9-0.3L188.9,35.1z M189.3,33.6c0.1-0.3,0.4-0.4,0.7-0.3
		c0.3,0.1,0.4,0.4,0.3,0.7c-0.1,0.3-0.4,0.4-0.7,0.3S189.2,33.9,189.3,33.6z"/>
	<path class="st0" d="M196.8,44.7l-0.9-0.4c0.1-0.4,1-3.1,1.2-3.7c0.3-0.9,0.4-1.9-0.6-2.1c-1.1-0.2-2,1.4-2.5,2.6l-0.9,2l-0.9-0.4
		l1.5-3.5c0.4-0.8,0.4-1.9-0.6-2.1c-1.4-0.3-2.4,1.9-2.8,2.9l-0.7,1.6l-0.9-0.4L191,36l0.9,0.4l-1,2.4c0.6-1.1,1.5-2.2,2.9-1.6
		c0.9,0.4,1.3,1.4,0.8,2.7l-0.1,0.1c0.6-1,1.4-1.8,2.6-1.3c0.9,0.4,1.2,1.3,0.8,2.7C197.6,42.3,196.9,44.3,196.8,44.7z"/>
	<path class="st0" d="M206.3,45.1L206.3,45.1l-4.1-2.3l0-0.1L206.3,45.1z"/>
	<path class="st0" d="M214.4,56.3l-0.8-0.6c0.2-0.3,1.8-2.7,2.1-3.2c0.5-0.8,0.8-1.8,0-2.2c-1-0.5-2.3,0.9-3.1,1.8l-1.4,1.7
		l-0.8-0.6l2.4-3c0.6-0.7,0.8-1.7,0-2.2c-1.2-0.7-2.8,1.3-3.5,2.1l-1.1,1.4l-0.8-0.6l3.5-4.5l0.8,0.6l-1.6,2c0.9-0.9,2-1.8,3.2-0.9
		c0.7,0.6,0.9,1.7,0.1,2.8l-0.1,0.1c0.8-0.8,1.9-1.4,2.8-0.6c0.8,0.6,0.9,1.6,0.1,2.8C215.7,54.2,214.6,55.9,214.4,56.3z"/>
	<path class="st0" d="M218.9,52.9l0.7,0.7l-4,4.1l-0.7-0.7L218.9,52.9z M219.9,51.7c0.2-0.2,0.6-0.2,0.8,0s0.2,0.6,0,0.8
		c-0.2,0.2-0.6,0.2-0.8,0C219.7,52.3,219.7,51.9,219.9,51.7z"/>
	<path class="st0" d="M219.9,62.6l-0.6-0.8c0.3-0.3,2.3-2.3,2.7-2.8c0.6-0.7,1.1-1.7,0.3-2.3c-1.1-0.9-3.2,0.6-3.9,1.2l-1.4,1.1
		l-0.6-0.7l4.3-3.7l0.6,0.7l-2.2,1.9c1.1-0.8,2.6-1.5,3.7-0.3c0.7,0.8,0.7,1.9-0.3,2.9C221.6,60.8,220.2,62.2,219.9,62.6z"/>
	<path class="st0" d="M226.7,62.7l0.5,0.8l-5.1,2.8c-1.8,1-2.9,0.3-3.9-0.5l0.1-0.1c1,0.7,1.5,0.7,3.2-0.3L226.7,62.7z M228,61.8
		c0.3-0.2,0.6-0.1,0.8,0.2c0.2,0.3,0.1,0.6-0.2,0.8c-0.3,0.2-0.6,0.1-0.8-0.2C227.6,62.3,227.7,62,228,61.8z"/>
	<path class="st0" d="M226.3,71.8c-0.8-0.1-1.9-0.5-2.5-1.8c-0.6-1.5-0.5-3.5,1.3-4.2c1.9-0.8,3.5,0.7,4,1.9
		c0.4,0.9,0.5,2.5-0.8,3.1l-1.8-4.5c-0.6,0.1-1.3,0.4-1.8,0.8c-1,0.9-1.3,2.1-0.7,3.2C224.7,71.4,225.9,71.7,226.3,71.8L226.3,71.8z
		 M226.7,66.4l1.4,3.7c0.9-0.5,1.4-1.7,0.7-2.8C228.4,66.5,227.5,66.3,226.7,66.4z"/>
	<path class="st0" d="M228.5,78.5c-1.8,0.2-3.1-1.3-3.3-2.9c-0.2-1.5,0.7-3.4,2.5-3.6c1.8-0.2,3.1,1.3,3.3,2.9
		C231.1,76.5,230.3,78.3,228.5,78.5z M228.3,77.5c1.6-0.2,2.7-1.4,2.5-2.6c-0.1-1.2-1.5-2.1-3.1-1.9c-1.6,0.2-2.7,1.4-2.5,2.6
		C225.4,76.8,226.8,77.7,228.3,77.5z"/>
	<path class="st0" d="M224.8,84.7l0.1-1c0.4,0,3.2,0.2,3.9,0.2c0.9,0,2-0.3,1.9-1.4c-0.1-1.4-2.5-2-3.5-2.1l-1.8-0.2l0.1-1l5.6,0.8
		l-0.1,1l-2.9-0.4c1.3,0.3,2.9,1,2.6,2.6c-0.1,1-0.9,1.7-2.4,1.7C227.3,84.8,225.2,84.7,224.8,84.7z"/>
	<path class="st0" d="M227.3,93.3l0.7-1.9c-0.7,0.7-1.7,0.9-2.7,0.5c-1.8-0.7-2.3-2.8-1.7-4.3c0.1-0.3,0.2-0.5,0.4-0.7
		c0.2-0.5,0.3-1.1,0.1-1.6c-0.1-0.2-0.2-0.5-0.5-0.7c-0.2-0.1-0.5-0.1-0.7,0c-0.2,0.1-0.5,0.3-0.6,0.7c-0.2,0.6,0,1.4,0.2,2.3
		c0.2,0.9,0.4,1.8,0.1,2.5c-0.3,0.6-0.8,0.9-1.4,0.7c-0.3-0.1-0.5-0.4-0.7-0.7c-0.2-0.5-0.2-1,0.1-1.6c0.3-0.7,1.1-1.3,1.5-1.6
		c-0.1-0.6-0.1-1.1,0-1.6c0.2-0.4,0.4-0.6,0.7-0.7c0.2-0.1,0.5-0.1,0.7,0c0.3,0.1,0.5,0.4,0.6,0.7c0.1,0.4,0.1,0.9,0,1.3
		c0.7-0.9,1.8-1.3,3-0.8c1.8,0.7,2.3,2.8,1.7,4.3c-0.2,0.5-0.4,0.9-0.8,1.2l-0.3,2.2L227.3,93.3z M222.2,87
		c-0.5,0.2-1.2,0.9-1.5,1.5c-0.2,0.6-0.3,1.1-0.1,1.6c0.1,0.3,0.3,0.5,0.6,0.6c0.5,0.2,1,0,1.2-0.6c0.3-0.7,0.1-1.6-0.2-2.4
		C222.3,87.4,222.3,87.2,222.2,87z M229,89.2c0.1-1.5-1.1-2.4-2.6-2.5c-1.5-0.1-2.9,0.5-3,2c-0.2,1.4,1.1,2.4,2.6,2.5
		C227.5,91.3,228.8,90.6,229,89.2z"/>
	<path class="st0" d="M217.4,97.6l0.6-0.8l4,0.4l-0.1-1.3l-2-1.6l0.6-0.8l6.7,5.1l-0.6,0.8l-4.5-3.5l0.3,4.6l-0.1,0.1l-0.2-2.6
		L217.4,97.6z"/>
	<path class="st0" d="M221.1,102l-0.7,0.7l-4.2-3.9l0.7-0.7L221.1,102z M222.4,102.9c0.2,0.2,0.2,0.6,0,0.8c-0.2,0.2-0.6,0.3-0.8,0
		c-0.2-0.2-0.2-0.6,0-0.8C221.8,102.7,222.1,102.7,222.4,102.9z"/>
	<path class="st0" d="M209,105.3l0.7-0.6c0.3,0.3,2.3,2.3,2.8,2.7c0.7,0.6,1.6,1.2,2.2,0.4c0.7-0.9-0.4-2.4-1.2-3.4l-1.4-1.7
		l0.7-0.6l2.5,2.9c0.6,0.7,1.6,1.1,2.2,0.4c0.9-1.1-0.7-3-1.4-3.8l-1.2-1.3l0.7-0.6l3.7,4.3l-0.7,0.6l-1.7-1.9
		c0.7,1.1,1.4,2.3,0.2,3.3c-0.7,0.6-1.8,0.5-2.8-0.4l-0.1-0.1c0.6,1,1,2.1,0.1,2.9c-0.7,0.6-1.7,0.5-2.7-0.4
		C210.8,107.1,209.3,105.6,209,105.3z"/>
	<path class="st0" d="M204.2,113.4L204.2,113.4l4-2.6l0.1,0.1L204.2,113.4z"/>
	<path class="st0" d="M190.6,115.6l0.9-0.4c0.2,0.3,1.6,2.8,2,3.3c0.5,0.8,1.2,1.5,2,0.9c0.9-0.7,0.3-2.4-0.3-3.6l-0.9-2l0.9-0.4
		l1.6,3.5c0.4,0.8,1.2,1.5,2,1c1.1-0.8,0.1-3.1-0.3-4l-0.8-1.6l0.9-0.4l2.4,5.1l-0.9,0.4L199,115c0.4,1.2,0.7,2.6-0.6,3.3
		c-0.9,0.4-1.9,0-2.6-1.1l-0.1-0.1c0.4,1.1,0.4,2.3-0.7,2.8c-0.9,0.4-1.8,0.1-2.5-1.1C191.9,117.7,190.8,115.9,190.6,115.6z"/>
	<path class="st0" d="M191.9,121.2l-0.9,0.4l-2.2-5.3l0.9-0.4L191.9,121.2z M192.6,122.5c0.1,0.3,0,0.6-0.3,0.7s-0.6,0-0.7-0.3
		s0-0.6,0.3-0.7C192.2,122.1,192.5,122.2,192.6,122.5z"/>
	<path class="st0" d="M182.6,118.6l0.9-0.3c0.2,0.4,1.4,2.9,1.7,3.5c0.4,0.8,1.2,1.6,2.1,1c1.2-0.7,0.5-3.2,0.2-4.1l-0.6-1.7
		l0.9-0.3l2,5.3l-0.9,0.3l-1-2.7c0.3,1.3,0.5,3-1,3.6c-0.9,0.4-2,0-2.6-1.3C183.7,120.8,182.8,119,182.6,118.6z"/>
	<path class="st0" d="M180.8,125.2l-0.9,0.3l-1.8-5.5c-0.6-2,0.3-2.9,1.2-3.7l0,0.1c-0.9,0.8-1,1.3-0.4,3.2L180.8,125.2z
		 M181.4,126.7c0.1,0.3-0.1,0.6-0.4,0.7c-0.3,0.1-0.6-0.1-0.7-0.4c-0.1-0.3,0.1-0.6,0.4-0.7C181,126.2,181.3,126.4,181.4,126.7z"/>
	<path class="st0" d="M172,123.5c0.2-0.8,0.6-1.9,2-2.3c1.5-0.5,3.5-0.2,4.1,1.7c0.6,2-1,3.4-2.3,3.8c-1,0.3-2.5,0.3-3.1-1.1
		l4.6-1.3c0-0.7-0.3-1.3-0.6-1.8c-0.8-1.1-2-1.4-3.1-1C172.6,122,172.2,123.2,172,123.5L172,123.5z M177.4,124.4l-3.8,1.1
		c0.4,1,1.6,1.5,2.7,1C177.1,126.1,177.4,125.3,177.4,124.4z"/>
	<path class="st0" d="M165.6,126.4c-0.4-1.8,1-3.2,2.5-3.6s3.4,0.3,3.8,2.1c0.4,1.8-1,3.2-2.5,3.6
		C167.9,128.8,166,128.2,165.6,126.4z M166.5,126.2c0.4,1.5,1.7,2.5,2.8,2.2c1.2-0.3,1.9-1.7,1.5-3.3s-1.7-2.5-2.8-2.2
		C166.9,123.2,166.2,124.6,166.5,126.2z"/>
	<path class="st0" d="M158.7,124.9l1-0.2c0.1,0.4,0.9,3.1,1.1,3.7c0.3,0.9,0.9,1.8,1.9,1.4c1.3-0.5,1-3,0.8-4l-0.4-1.7l1-0.2
		l1.1,5.6l-1,0.2l-0.6-2.8c0.1,1.4,0,3-1.5,3.3c-1,0.2-2-0.3-2.4-1.7C159.4,127.3,158.8,125.3,158.7,124.9z"/>
	<path class="st0" d="M152.3,131.6l1.9-0.4c-0.9-0.3-1.7-1-1.9-2c-0.3-1.9,1.1-3.4,2.8-3.7c0.3,0,0.6-0.1,0.8-0.1
		c0.5,0,1.1-0.3,1.4-0.7c0.2-0.2,0.3-0.5,0.3-0.8c0-0.3-0.1-0.5-0.3-0.6c-0.2-0.2-0.5-0.2-0.9-0.2c-0.7,0.1-1.2,0.7-1.9,1.3
		c-0.6,0.6-1.3,1.3-2.1,1.4c-0.7,0.1-1.2-0.2-1.3-0.8c-0.1-0.3,0-0.7,0.2-1c0.3-0.4,0.8-0.7,1.4-0.8c0.7-0.1,1.7,0.2,2.2,0.5
		c0.4-0.4,0.9-0.7,1.3-0.8c0.4-0.1,0.7,0,1,0.2c0.2,0.1,0.3,0.4,0.3,0.6c0,0.3-0.1,0.6-0.3,0.9c-0.3,0.3-0.7,0.6-1.1,0.7
		c1.1,0.2,2,0.9,2.2,2.1c0.3,2-1.1,3.4-2.8,3.7c-0.5,0.1-1,0.1-1.4,0l-2,0.9L152.3,131.6z M155.1,123.9c-0.4-0.3-1.4-0.6-2.1-0.5
		c-0.6,0.1-1.1,0.4-1.4,0.7c-0.2,0.3-0.3,0.6-0.2,0.9c0.1,0.5,0.6,0.8,1.2,0.7c0.7-0.1,1.4-0.8,2-1.4
		C154.7,124.2,154.9,124.1,155.1,123.9z M156.7,130.9c1.3-0.6,1.4-2.2,0.8-3.5c-0.7-1.4-2-2.2-3.3-1.5c-1.3,0.6-1.4,2.2-0.8,3.5
		C154.1,130.7,155.4,131.5,156.7,130.9z"/>
	<path class="st0" d="M143.1,127.2l1-0.1l2.5,3.1l0.9-1l-0.3-2.5l1-0.1l1,8.3l-1,0.1l-0.7-5.7l-3.1,3.4l-0.1,0l1.8-2L143.1,127.2z"
		/>
	<path class="st0" d="M142.8,133l-1,0.1l-0.6-5.7l1-0.1L142.8,133z M143.1,134.5c0,0.3-0.2,0.6-0.5,0.6c-0.3,0-0.6-0.2-0.6-0.5
		c0-0.3,0.2-0.6,0.5-0.6C142.8,134,143.1,134.2,143.1,134.5z"/>
	<path class="st0" d="M131.4,128.2l1-0.1c0.1,0.4,0.5,3.2,0.6,3.8c0.2,0.9,0.6,1.9,1.5,1.6c1.1-0.3,1.1-2.2,1-3.4l-0.2-2.2l1-0.1
		l0.3,3.8c0.1,0.9,0.6,1.8,1.5,1.6c1.4-0.4,1.2-2.9,1.2-3.9l-0.1-1.8l1-0.1l0.4,5.7l-1,0.1l-0.2-2.6c0,1.3-0.3,2.7-1.8,2.8
		c-0.9,0.1-1.8-0.7-2-2l0-0.1c-0.1,1.2-0.4,2.3-1.7,2.4c-1,0.1-1.7-0.6-2-2C131.8,130.6,131.5,128.6,131.4,128.2z"/>
	<path class="st0" d="M122.9,132.7L122.9,132.7l4.7-0.2l0,0.1L122.9,132.7z"/>
</g>
</svg>
